<svg height="70" viewBox="0 0 70 70" width="70" xmlns="http://www.w3.org/2000/svg"><g fill="none"><circle cx="35" cy="35" fill="#00d2ff" r="27.758555"/><path d="m48.4007617 54.1437695c-15.3305469 0-27.7586914-12.4280078-27.7586914-27.7585547 0-6.8999218 2.5232813-13.2068945 6.6897852-18.06246089-11.5993555 3.32841799-20.09041019 14.00765629-20.09041019 26.67724609 0 15.3305469 12.42800779 27.7585547 27.75855469 27.7585547 8.430625 0 15.9777734-3.763457 21.0687695-9.6962305-2.4363281.6993164-5.006914 1.0814453-7.6680078 1.0814453z" fill="#18bdf6"/><g fill="#e4eaf6" transform="translate(9.707031 12.851562)"><path d="m38.7990039 4.27806641.6487305 1.94632812c.0998047.29955078-.1230469.60894531-.4388672.60894531h-.8097852c-.2555273 0-.4626562-.2071289-.4626562-.46265625v-1.94646484c0-.25552734.2071289-.46265625.4626562-.46265625h.1610547c.1991992.00013672.3759766.12769531.4388672.31650391z"/><path d="m36.7792578 6.33882813v.03185546c0 .25552735-.2071289.46265625-.4626562.46265625h-.0318555c-.2555274 0-.4626563-.2071289-.4626563-.46265625v-.03185546c0-.25552735.2071289-.46265625.4626563-.46265625h.0318555c.2555273-.00000001.4626562.2071289.4626562.46265625z"/><path d="m42.882793 1.92376953-.2715235.81484375c-.0567383.17035156-.1789648.31103516-.3394726.39128906l-1.0583399.52910157c-.3342773.16720703-.4699023.57367187-.3026953.90808593l.3793945.75878907c.1353516.27070312.4960157.32921875.7101172.1152539l.0436133-.04361328c.2642774-.26427734.6928906-.26427734.957168 0 .2642773.26427734.6928906.26427734.957168 0l.4785156-.47851562.2392578-.47851563.3688672.73773438c.1841601.36845703-.0005469.81457031-.3912891.94486328l-2.0269922.67566406c-.0689062.02296875-.1413672.03472656-.2141015.03472656h-1.5240039c-.1795118 0-.3516407.07136719-.4785157.19824219l-.7589257.75892578h-.3350977c-.3435742 0-.622207.27849609-.622207.62220703v.61550781c0 .37378907-.3031055.67675782-.6767578.67675782h-1.5179883c-.3737891 0-.6767578.30310551-.6767578.67675781v1.5179883c0 .373789.3031054.6767578.6767578.6767578h2.6641015c.2913477 0 .5500196-.1864844.6420313-.462793l.8029492-2.40884763h.957168l2.2196289 1.47984373c.2786328.1856641.651875-.014082.651875-.3489062 0-.1111524-.0441602-.217793-.1227735-.2964063l-.8343945-.83439451h.957168l1.5402734.77013671c.2292774.114707.3741992.3489063.3741992.6053906v1.0095313c0 .2686523.217793.486582.4865821.486582h.1698047c.1842968 0 .3527343-.104043.4351757-.2689258l.2173828-.4346289c.249375-.4988867.9612696-.4988867 1.2107813 0l.3517773.7035547h.957168l.5672461 1.701875c.1689844.5066797-.2882031 1.0002344-.8062305.870625l-2.5518554-.6379297c-.0537305-.0133984-.1088282-.0202344-.1641993-.0202344h-1.4302148c-.2214844 0-.4009961.1795118-.4009961.4009961 0 .273711-.2681055.4668946-.5277344.3803516l-1.8811132-.6269922c-.2764454-.0921484-.462793-.3508203-.462793-.6420312v-.7497657c0-.373789-.3031055-.6767578-.6767578-.6767578h-1.1276563c-.0727344 0-.1449219.0117578-.2141015.0347266l-2.6631446.8877148c-.0689062.0229688-.1413672.0347266-.2141015.0347266h-1.3863282c-.2563476 0-.4908203.1447852-.6053906.3741992l-.6860547 1.3723828c-.0556445.1111524-.1286523.2127344-.2166992.3006446l-1.442793 1.4427929c-.2169726.2169727-.338789.5110547-.338789.8178516v2.8705469c0 .3066601.1219531.6008789.338789.8178515l2.1939258 2.1939258c.2169727.2169727.5110547.3387891.8178516.3387891h5.5444922c.373789 0 .6767578.3031054.6767578.6767578v2.9922266c0 .1051367.0244726.2086328.0715039.3026953l.8142969 1.6285937c.0468945.0939258.0715039.1975586.0715039.3026953v1.6707032c0 .055371.0068359.1104687.0202344.1641992l1.765996 7.0639843c.0753321.3013282.3460352.5126954.6566602.5126954h.7895508c.2124609 0 .4143945-.0970704.544414-.2650977 3.6294727-4.6913672 5.794961-10.5731445 5.794961-16.9639258 0-8.1288867-3.4979492-15.43773436-9.0665039-20.51410154-.3623047-.33058594-.9467774-.17636719-1.1018164.28929687z"/><path d="m24.1175977 26.2799414-.5208985-1.5626953c-.130293-.3908789-.4960156-.6544727-.9080859-.6544727h-.8279688c-.2538867 0-.4973828-.1007617-.6767578-.2802734l-1.3536523-1.3536523c-.1795117-.1795118-.4230078-.2802735-.6767578-.2802735h-1.1213672c-.2538867 0-.4973828-.1007617-.6767578-.2802734l-.1890821-.1890821c-.2913476-.2913476-.7363672-.3635351-1.1049609-.179375l-1.0952539.5476954c-.1328906.066582-.2794531.1010351-.4279297.1010351h-.9985938c-.4120703 0-.7777929-.2637305-.9080859-.6544726l-.5728515-1.7185547c-.1034961-.3104883-.3584766-.5466016-.6758008-.6258985l-2.00128909-.5002539c-.64216797-.1605078-.93146485-.9087695-.56423829-1.4596093l.87677735-1.3152344c.17759766-.2663281.47646483-.4261524.79638673-.4261524h1.7677734c.3625781 0 .6939844.2048047.8561328.5291016l.5291016 1.0583398c.1002148.200293.3050195.3270313.5291016.3270313.3267578 0 .591582-.2649609.591582-.591582v-1.8461133c0-.2760352.1192187-.5385352.3268945-.7203711l7.0600196-6.17750001c.1745898-.15271485.3983984-.23679688.6302734-.23679688h2.1410156c.6533789 0 1.114668-.64011719.908086-1.25986328l-.4117969-1.23552734c-.0802539-.24076172-.2529297-.43996094-.4800195-.55357422l-2.7595313-1.37976563c-.4138477-.20685547-.9162891-.08832031-1.1938281.28177735l-1.8489844 2.46517578c-.3047461.40646484-.8739062.50394531-1.2966406.22203125l-.9925781-.66171875c-.5494727-.36626953-.5717579-1.16580078-.0433399-1.56214844l2.4911524-1.86839844c.1657031-.12427734.3672265-.19140625.5743554-.19140625h3.0310547c.2642774 0 .4785156.21423828.4785156.47851563 0 .26427734.2142383.47851562.4785157.47851562h1.4356836c.5285546 0 .9571679-.42861328.9571679-.95716797v-.95716796c0-.52855469-.4286133-.95716797-.957168-.95716797h-5.5412109c-.755918 0-1.4948828.22367187-2.1237891.64298828l-1.5473828 1.03154297c-.1536718.10240234-.359707-.00765625-.359707-.1925v-.525c0-.52855469-.4286133-.95716797-.957168-.95716797h-1.5179882c-.2538868 0-.4973829.10076172-.6767579.28027344l-1.0791211 1.07912109c-.3226562.32265625-.8281054.37269531-1.2077734.11962891l-1.45058593-.96701172c-.35751953-.23830078-.82701171-.20958985-1.15896484.06330078-3.25199219 2.67558594-5.88273437 6.07482422-7.64886719 9.95367183h.38212891l1.64623047 5.7616016c.15873047.5557617.66664062.9388477 1.24455078.9388477.58597656 0 1.13326172.2928515 1.45824219.7803906l1.17414062 1.7613476c.14082031.2112305.35984375.357793.60867188.4076954l3.93804691.7876367c.289707.0579687.5363476.2463672.6684179.5105078l.4831641.9666015c.1621484.3242969.4935547.5291016.8561328.5291016h1.3227539c.5285547 0 .957168.4286133.957168.957168v.5608203c0 .2538867-.1007617.4973828-.2802735.6767578l-.5170703.5170703c-.1051367.1051367-.1841601.2332422-.2313281.3741992l-.674707 2.0239844c-.126875.3804883-.0030078.7995313.3102148 1.0501367l3.9055078 3.1245703c.2270899.1816993.3591602.4566407.3591602.7473047v7.9287305c0 .1486133.0345898.2950391.1010351.4279297l2.505918 5.0119726c.1621484.3242969.4935547.5291016.8561328.5291016h.1929102c.591582 0 1.0413867-.5311523.9440429-1.1145312l-.6904296-4.1427149c-.0508594-.3048828.0486718-.6156445.2672851-.8342578l3.2000391-3.2000391c.1795117-.1795117.2802734-.4230078.2802734-.6767578v-1.5183984c0-.5285547.4286133-.957168.957168-.957168h1.2245898c.4120703 0 .777793-.2637305.908086-.6544726l1.4650781-4.3950977c.136582-.4094726-.0179102-.8598242-.377207-1.0992187l-2.0222071-1.3480469c-.1572265-.1048633-.3420703-.1607813-.5308789-.1607813h-1.8917773c-.41125.0009571-.7769727-.2626367-.9072656-.6535156z"/></g><g fill="#c7cfe2" transform="translate(9.707031 12.851562)"><path d="m6.53789063 20.3118945 3.93804687.7876368c.289707.0579687.5363477.2463671.668418.5105078l.483164.9666015c.1621485.3241602.4935547.5291016.8561328.5291016h.1464258c-.4633398-1.260957-.836582-2.5651172-1.1143945-3.9042774-.0440234-.018457-.0862695-.040332-.1333008-.0520898l-2.00128905-.5002539c-.64216797-.1605078-.93146484-.9087695-.56423828-1.4596094l.87677734-1.3152344c.17759766-.2663281.47646489-.4261523.79638669-.4261523h.5180274c-.0432032-.6332812-.0730078-1.2701172-.0730078-1.9144727 0-4.8624023 1.2574023-9.4277148 3.4558398-13.40076167h-1.1448828c-.2538867 0-.4973828.10089843-.6768945.28027343l-1.0791211 1.0791211c-.3226563.32265625-.8282422.37269531-1.2077735.1196289l-1.45058591-.96701172c-.34945312-.23296875-.80417968-.20699218-1.13449218.04921875-.46894532.38472657-.92394532.78544922-1.36636719 1.19957032-.15216797.14259765-.29886719.29052734-.44761719.43667968-.30310547.29763672-.60210937.59951172-.89017578.91177735-.17800781.19304687-.35847656.38376953-.53210938.58078125-.38828125.44078125-.76548828.89167969-1.12574218 1.35666015-.13001953.16816407-.25169922.34302735-.37802735.51433594-.26728515.36189453-.52759765.7291211-.77738281 1.10414063-.15230469.2290039-.30037109.46115234-.44611328.69480468-.22298828.35765625-.433125.72296875-.64203125 1.08896485-.11634766.20371094-.23570312.40537109-.34548828.61304687-.25388672.47988282-.48917969.97097659-.71517578 1.46699219h.03363281c.20207031 0 .37966797.1339844.43517578.3282617l1.55230469 5.4333399c.16078125.5630078.68017578.9489648 1.26765625.9387109.57777344-.0101172 1.11466797.2998242 1.43527344.7805273l1.17414062 1.7613477c.14095703.2113672.35998047.3579297.6088086.407832z"/><path d="m25.0125586 37.7439453c.0127148-.0127148.0173633-.0304883.0292578-.04375-4.7889844-2.7112695-8.6903906-6.8020312-11.1663672-11.7355273-.0508594.0738281-.1116992.1415039-.1401367.2269531l-.674707 2.0241211c-.126875.3804883-.0030078.7995312.3102148 1.0501367l3.9055078 3.1245703c.2270899.1816992.3591602.4566406.3591602.7473047v7.9287305c0 .1486133.0345898.295039.1010351.4279297l2.505918 5.0119726c.1621484.3242969.4935547.5291016.8561328.5291016h.1927735c.591582 0 1.0413867-.5311524.9440429-1.1145313l-.6904297-4.1427148c-.0508593-.3048828.0486719-.6156445.2672852-.8342578z"/></g><circle cx="15.689707" cy="15.689707" fill="#a5d76e" r="1.206953"/><path d="m10.8620312 16.8965234c-.6670507 0-1.20695308-.5404492-1.20695308-1.2069531 0-3.3273242 2.70716798-6.03449217 6.03449218-6.03449217.6670508 0 1.2069531.54044917 1.2069531 1.20695317 0 .6665039-.5397656 1.2069531-1.2069531 1.2069531-1.9965039 0-3.6207226 1.6242187-3.6207226 3.6207226.0001367.6665039-.539629 1.2068164-1.2068165 1.2068164z" fill="#c3e678"/><path d="m6.03449219 16.8965234c-.66705078 0-1.20695313-.5404492-1.20695313-1.2069531 0-5.98910155 4.87238282-10.86203124 10.86203124-10.86203124.6670508 0 1.2069531.54044922 1.2069531 1.20695313 0 .6665039-.5397656 1.20695312-1.2069531 1.20695312-4.6578711 0-8.44826171 3.78984379-8.44826171 8.44826169.00013672.6665039-.53976562 1.2068164-1.2068164 1.2068164z" fill="#d2f578"/><path d="m1.20695312 16.8965234c-.66705078 0-1.20695312-.5404492-1.20695312-1.2069531 0-8.65156249 7.03855469-15.6895703 15.689707-15.6895703.6670508 0 1.2069532.54044922 1.2069532 1.20695313 0 .6665039-.5397657 1.20695312-1.2069532 1.20695312-7.320332 0-13.27580075 5.95560547-13.27580075 13.27580075-.00013672.6665039-.53990234 1.2068164-1.20695313 1.2068164z" fill="#e6ffa0"/><circle cx="54.310293" cy="54.310293" fill="#a5d76e" r="1.206953"/><path d="m54.310293 60.3447852c-.6670508 0-1.2069532-.5397657-1.2069532-1.2069532 0-.6670507.5397657-1.2069531 1.2069532-1.2069531 1.9965039 0 3.6207226-1.6242187 3.6207226-3.6207226 0-.6670508.5397656-1.2069532 1.2069531-1.2069532.6670508 0 1.2069532.5397657 1.2069532 1.2069532-.0001367 3.3274609-2.7073047 6.0346289-6.0346289 6.0346289z" fill="#c3e678"/><path d="m54.310293 65.1724609c-.6670508 0-1.2069532-.5397656-1.2069532-1.2069531 0-.6670508.5397657-1.2069531 1.2069532-1.2069531 4.6578711 0 8.4482617-3.7903906 8.4482617-8.4482617 0-.6670508.5397656-1.2069532 1.2069531-1.2069532.6670508 0 1.2069531.5397657 1.2069531 1.2069532 0 5.9897851-4.8723828 10.8621679-10.8621679 10.8621679z" fill="#d2f578"/><path d="m54.310293 70c-.6670508 0-1.2069532-.5397656-1.2069532-1.2069531 0-.6670508.5397657-1.2069531 1.2069532-1.2069531 7.320332 0 13.2758008-5.9556055 13.2758008-13.2758008 0-.6670508.5397656-1.2069532 1.2069531-1.2069532.6670508 0 1.2069531.5397657 1.2069531 1.2069532 0 8.6511523-7.0385547 15.689707-15.689707 15.689707z" fill="#e6ffa0"/></g></svg>